# xmcd
# Copyright (c) 1998 CDDB Inc.
#
# Track frame offsets:
#	150
#	20715
#	39988
#	67139
#
# Disc length: 1143 seconds
#
# Revision: 1
# Processed by: cddbd v1.4b41PL1 Copyright (c) Steve Scherf et al.
# Submitted via: audiograbber 1.70
#
DISCID=32047504
DTITLE=the blue frame - the blue frame
DYEAR=1900
DGENRE=
TTITLE0=Congo Sqare
TTITLE1=How sweet it is
TTITLE2=Moondance
TTITLE3=Not trustworthy (A lyin´ woman)
EXTD=
EXTT0=
EXTT1=
EXTT2=
EXTT3=
PLAYORDER=
